<svg width="47" height="37" viewBox="0 0 47 37" fill="none" xmlns="http://www.w3.org/2000/svg">
<path d="M23.5 1L1 19.8462L23.5 4.18182V1Z" fill="#52B1C3"/>
<path d="M8.82609 36L8.33696 19.8462L9.80435 34.7762H23.5V36H8.82609Z" fill="#52B1C3"/>
<path d="M23.5 1L1 19.8462L23.5 4.18182V1Z" stroke="#52B1C3" stroke-linecap="round" stroke-linejoin="round"/>
<path d="M8.82609 36L8.33696 19.8462L9.80435 34.7762H23.5V36H8.82609Z" stroke="#52B1C3" stroke-linecap="round" stroke-linejoin="round"/>
<path d="M11.2717 2.95807V9.81122L11.7609 3.44758L14.6956 2.95807H11.2717Z" fill="#52B1C3" stroke="#52B1C3" stroke-linecap="round" stroke-linejoin="round"/>
<path d="M23.5 1L46 19.8462L23.5 4.18182V1Z" fill="#52B1C3"/>
<path d="M38.1739 36L38.663 19.8462L37.1957 34.7762H23.5V36H38.1739Z" fill="#52B1C3"/>
<path d="M23.5 1L46 19.8462L23.5 4.18182V1Z" stroke="#52B1C3" stroke-linecap="round" stroke-linejoin="round"/>
<path d="M38.1739 36L38.663 19.8462L37.1957 34.7762H23.5V36H38.1739Z" stroke="#52B1C3" stroke-linecap="round" stroke-linejoin="round"/>
</svg>
