<svg width="243" height="139" viewBox="0 0 243 139" fill="none" xmlns="http://www.w3.org/2000/svg">
<path d="M90.5 41L86 36L122 0V9.5L90.5 41Z" fill="#EDF2F3"/>
<path d="M115.5 25.5H122V47H115.5V25.5Z" fill="#EDF2F3"/>
<path d="M153.5 41L158 36L122 0V9.5L153.5 41Z" fill="#EDF2F3"/>
<path d="M128.5 25.5H122V47H128.5V25.5Z" fill="#EDF2F3"/>
<path d="M136.5 4.5V14.5L142.5 20.5V4.5H136.5Z" fill="#EDF2F3"/>
<path d="M25.0223 69.6H49.9343C52.3823 69.6 54.6383 69.96 56.7023 70.68C58.7663 71.352 60.5183 72.288 61.9583 73.488C63.4463 74.688 64.5983 76.152 65.4143 77.88C66.2783 79.56 66.7103 81.384 66.7103 83.352C66.7103 85.704 66.0383 87.84 64.6943 89.76C63.3503 91.632 61.5743 93.144 59.3663 94.296C61.9583 95.352 64.0703 96.912 65.7023 98.976C67.3343 100.992 68.1503 103.296 68.1503 105.888C68.1503 107.952 67.7183 109.848 66.8543 111.576C66.0383 113.304 64.8623 114.792 63.3263 116.04C61.8383 117.288 60.0383 118.272 57.9263 118.992C55.8623 119.664 53.5823 120 51.0863 120H25.0223V69.6ZM48.4943 79.464H37.4062V89.832H48.4943C50.2223 89.832 51.6143 89.352 52.6703 88.392C53.7263 87.432 54.2543 86.184 54.2543 84.648C54.2543 83.064 53.7263 81.816 52.6703 80.904C51.6623 79.944 50.2703 79.464 48.4943 79.464ZM49.5023 110.136C51.3743 110.136 52.8623 109.632 53.9663 108.624C55.0703 107.616 55.6223 106.272 55.6223 104.592C55.6223 102.912 55.0703 101.568 53.9663 100.56C52.8623 99.552 51.3743 99.048 49.5023 99.048H37.4062V110.136H49.5023ZM89.3526 120V100.92L68.9046 69.6H83.1606L95.9046 90.264L108.793 69.6H122.257L101.737 100.848V120H89.3526ZM127.819 120V69.6H140.203V109.416H165.187V120H127.819ZM174.507 120V69.6H195.027C198.531 69.6 201.819 70.272 204.891 71.616C208.011 72.912 210.699 74.688 212.955 76.944C215.259 79.2 217.059 81.888 218.355 85.008C219.699 88.08 220.371 91.392 220.371 94.944C220.371 98.4 219.699 101.664 218.355 104.736C217.059 107.808 215.259 110.472 212.955 112.728C210.699 114.984 208.011 116.76 204.891 118.056C201.819 119.352 198.531 120 195.027 120H174.507ZM195.027 80.184H186.891V109.416H195.027C196.755 109.416 198.387 109.056 199.923 108.336C201.459 107.568 202.779 106.536 203.883 105.24C205.035 103.944 205.923 102.408 206.547 100.632C207.219 98.856 207.555 96.96 207.555 94.944C207.555 92.88 207.219 90.96 206.547 89.184C205.923 87.36 205.035 85.8 203.883 84.504C202.779 83.16 201.459 82.104 199.923 81.336C198.387 80.568 196.755 80.184 195.027 80.184Z" fill="#EDF2F3"/>
</svg>
