<svg width="508" height="268" viewBox="0 0 508 268" fill="none" xmlns="http://www.w3.org/2000/svg">
<path d="M224.5 41L220 36L256 0V9.5L224.5 41Z" fill="#EDF2F3"/>
<path d="M249.5 25.5H256V47H249.5V25.5Z" fill="#EDF2F3"/>
<path d="M287.5 41L292 36L256 0V9.5L287.5 41Z" fill="#EDF2F3"/>
<path d="M262.5 25.5H256V47H262.5V25.5Z" fill="#EDF2F3"/>
<path d="M270.5 4.5V14.5L276.5 20.5V4.5H270.5Z" fill="#EDF2F3"/>
<path d="M159.022 69.6H183.934C186.382 69.6 188.638 69.96 190.702 70.68C192.766 71.352 194.518 72.288 195.958 73.488C197.446 74.688 198.598 76.152 199.414 77.88C200.278 79.56 200.71 81.384 200.71 83.352C200.71 85.704 200.038 87.84 198.694 89.76C197.35 91.632 195.574 93.144 193.366 94.296C195.958 95.352 198.07 96.912 199.702 98.976C201.334 100.992 202.15 103.296 202.15 105.888C202.15 107.952 201.718 109.848 200.854 111.576C200.038 113.304 198.862 114.792 197.326 116.04C195.838 117.288 194.038 118.272 191.926 118.992C189.862 119.664 187.582 120 185.086 120H159.022V69.6ZM182.494 79.464H171.406V89.832H182.494C184.222 89.832 185.614 89.352 186.67 88.392C187.726 87.432 188.254 86.184 188.254 84.648C188.254 83.064 187.726 81.816 186.67 80.904C185.662 79.944 184.27 79.464 182.494 79.464ZM183.502 110.136C185.374 110.136 186.862 109.632 187.966 108.624C189.07 107.616 189.622 106.272 189.622 104.592C189.622 102.912 189.07 101.568 187.966 100.56C186.862 99.552 185.374 99.048 183.502 99.048H171.406V110.136H183.502ZM223.353 120V100.92L202.905 69.6H217.161L229.905 90.264L242.793 69.6H256.257L235.737 100.848V120H223.353ZM261.819 120V69.6H274.203V109.416H299.187V120H261.819ZM308.507 120V69.6H329.027C332.531 69.6 335.819 70.272 338.891 71.616C342.011 72.912 344.699 74.688 346.955 76.944C349.259 79.2 351.059 81.888 352.355 85.008C353.699 88.08 354.371 91.392 354.371 94.944C354.371 98.4 353.699 101.664 352.355 104.736C351.059 107.808 349.259 110.472 346.955 112.728C344.699 114.984 342.011 116.76 338.891 118.056C335.819 119.352 332.531 120 329.027 120H308.507ZM329.027 80.184H320.891V109.416H329.027C330.755 109.416 332.387 109.056 333.923 108.336C335.459 107.568 336.779 106.536 337.883 105.24C339.035 103.944 339.923 102.408 340.547 100.632C341.219 98.856 341.555 96.96 341.555 94.944C341.555 92.88 341.219 90.96 340.547 89.184C339.923 87.36 339.035 85.8 337.883 84.504C336.779 83.16 335.459 82.104 333.923 81.336C332.387 80.568 330.755 80.184 329.027 80.184Z" fill="#EDF2F3"/>
<path d="M0.590406 241.08C0.590406 238.008 1.11841 234.96 2.17441 231.936C3.27841 228.912 4.86241 226.176 6.92641 223.728C8.99041 221.232 11.5344 219.264 14.5584 217.824C17.5824 216.336 21.0144 215.592 24.8544 215.592C29.3664 215.592 33.2544 216.648 36.5184 218.76C39.7824 220.824 42.1824 223.488 43.7184 226.752L39.7584 229.2C38.6544 226.944 37.2624 225.168 35.5824 223.872C33.9024 222.528 32.1024 221.568 30.1824 220.992C28.3104 220.416 26.4384 220.128 24.5664 220.128C21.4944 220.128 18.7824 220.752 16.4304 222C14.0784 223.2 12.0864 224.832 10.4544 226.896C8.87041 228.96 7.67041 231.24 6.85441 233.736C6.03841 236.232 5.63041 238.776 5.63041 241.368C5.63041 244.2 6.11041 246.912 7.07041 249.504C8.03041 252.048 9.37441 254.328 11.1024 256.344C12.8304 258.36 14.8464 259.968 17.1504 261.168C19.5024 262.32 22.0464 262.896 24.7824 262.896C26.7024 262.896 28.6704 262.56 30.6864 261.888C32.7024 261.216 34.5744 260.184 36.3024 258.792C38.0304 257.4 39.4464 255.6 40.5504 253.392L44.7264 255.552C43.6224 258.096 41.9664 260.256 39.7584 262.032C37.5984 263.808 35.1504 265.152 32.4144 266.064C29.7264 266.976 27.0864 267.432 24.4944 267.432C20.9904 267.432 17.7744 266.688 14.8464 265.2C11.9184 263.664 9.37441 261.648 7.21441 259.152C5.10241 256.608 3.47041 253.776 2.31841 250.656C1.16641 247.488 0.590406 244.296 0.590406 241.08ZM73.3633 267.36C69.7633 267.36 66.4993 266.64 63.5713 265.2C60.6433 263.712 58.1233 261.744 56.0113 259.296C53.8993 256.848 52.2673 254.088 51.1153 251.016C49.9633 247.896 49.3873 244.704 49.3873 241.44C49.3873 238.032 49.9873 234.792 51.1873 231.72C52.3873 228.6 54.0673 225.84 56.2273 223.44C58.4353 220.992 61.0033 219.072 63.9313 217.68C66.8593 216.24 70.0273 215.52 73.4353 215.52C76.9873 215.52 80.2273 216.264 83.1553 217.752C86.0833 219.24 88.6033 221.232 90.7153 223.728C92.8753 226.224 94.5073 229.008 95.6113 232.08C96.7633 235.152 97.3393 238.296 97.3393 241.512C97.3393 244.92 96.7393 248.184 95.5393 251.304C94.3393 254.376 92.6593 257.136 90.4993 259.584C88.3393 261.984 85.7953 263.88 82.8673 265.272C79.9393 266.664 76.7713 267.36 73.3633 267.36ZM54.4273 241.44C54.4273 244.224 54.8833 246.888 55.7953 249.432C56.7073 251.976 58.0033 254.256 59.6833 256.272C61.3633 258.288 63.3553 259.896 65.6593 261.096C68.0113 262.248 70.5793 262.824 73.3633 262.824C76.2913 262.824 78.9073 262.224 81.2113 261.024C83.5633 259.776 85.5553 258.12 87.1873 256.056C88.8673 253.992 90.1393 251.712 91.0033 249.216C91.8673 246.672 92.2993 244.08 92.2993 241.44C92.2993 238.656 91.8433 235.992 90.9313 233.448C90.0193 230.904 88.6993 228.624 86.9713 226.608C85.2913 224.592 83.2993 223.008 80.9953 221.856C78.6913 220.704 76.1473 220.128 73.3633 220.128C70.4833 220.128 67.8673 220.728 65.5153 221.928C63.2113 223.128 61.2193 224.76 59.5393 226.824C57.9073 228.84 56.6353 231.12 55.7233 233.664C54.8593 236.208 54.4273 238.8 54.4273 241.44ZM152.13 267V225.384L133.626 257.712H130.458L111.882 225.384V267H106.842V215.88H112.026L131.97 250.872L152.058 215.88H157.17V267H152.13ZM169.982 267V215.88H175.022V267H169.982ZM192.882 225.168V267H187.842V215.88H192.018L225.57 258.504V215.952H230.61V267H225.93L192.882 225.168ZM263.979 267.36C260.523 267.36 257.331 266.64 254.403 265.2C251.523 263.712 249.003 261.72 246.843 259.224C244.683 256.728 243.003 253.944 241.803 250.872C240.651 247.752 240.075 244.584 240.075 241.368C240.075 237.96 240.651 234.72 241.803 231.648C243.003 228.528 244.659 225.768 246.771 223.368C248.883 220.92 251.379 219 254.259 217.608C257.139 216.216 260.283 215.52 263.691 215.52C268.731 215.52 272.835 216.552 276.003 218.616C279.171 220.68 281.571 223.368 283.203 226.68L279.315 229.272C277.683 226.104 275.499 223.776 272.763 222.288C270.027 220.8 266.979 220.056 263.619 220.056C260.787 220.056 258.219 220.656 255.915 221.856C253.659 223.056 251.715 224.664 250.083 226.68C248.499 228.696 247.275 230.976 246.411 233.52C245.547 236.064 245.115 238.704 245.115 241.44C245.115 244.32 245.595 247.056 246.555 249.648C247.515 252.192 248.859 254.472 250.587 256.488C252.363 258.456 254.403 260.016 256.707 261.168C259.059 262.272 261.603 262.824 264.339 262.824C267.267 262.824 270.051 262.128 272.691 260.736C275.379 259.344 277.947 257.184 280.395 254.256V245.76H269.019V241.872H284.643V267H280.395V259.512C275.691 264.744 270.219 267.36 263.979 267.36ZM343.229 225.456C341.789 223.872 339.869 222.576 337.469 221.568C335.069 220.512 332.333 219.984 329.261 219.984C324.749 219.984 321.461 220.848 319.397 222.576C317.333 224.256 316.301 226.56 316.301 229.488C316.301 231.504 316.805 233.088 317.813 234.24C318.821 235.392 320.357 236.352 322.421 237.12C324.533 237.84 327.221 238.56 330.485 239.28C334.133 240.048 337.277 240.96 339.917 242.016C342.557 243.072 344.597 244.512 346.037 246.336C347.477 248.112 348.197 250.536 348.197 253.608C348.197 256.728 347.405 259.32 345.821 261.384C344.237 263.448 342.053 264.984 339.269 265.992C336.485 266.952 333.317 267.432 329.765 267.432C321.797 267.432 314.957 264.96 309.245 260.016L311.765 255.912C313.589 257.832 316.085 259.488 319.253 260.88C322.469 262.272 326.021 262.968 329.909 262.968C333.941 262.968 337.109 262.224 339.413 260.736C341.717 259.248 342.869 257.04 342.869 254.112C342.869 252 342.293 250.32 341.141 249.072C339.989 247.776 338.261 246.72 335.957 245.904C333.653 245.088 330.821 244.296 327.461 243.528C323.909 242.712 320.909 241.8 318.461 240.792C316.061 239.784 314.237 238.464 312.989 236.832C311.741 235.2 311.117 232.992 311.117 230.208C311.117 227.04 311.885 224.376 313.421 222.216C315.005 220.008 317.165 218.352 319.901 217.248C322.637 216.096 325.781 215.52 329.333 215.52C332.693 215.52 335.717 216.048 338.405 217.104C341.093 218.112 343.517 219.552 345.677 221.424L343.229 225.456ZM377.676 267.36C374.076 267.36 370.812 266.64 367.884 265.2C364.956 263.712 362.436 261.744 360.324 259.296C358.212 256.848 356.58 254.088 355.428 251.016C354.276 247.896 353.7 244.704 353.7 241.44C353.7 238.032 354.3 234.792 355.5 231.72C356.7 228.6 358.38 225.84 360.54 223.44C362.748 220.992 365.316 219.072 368.244 217.68C371.172 216.24 374.34 215.52 377.748 215.52C381.3 215.52 384.54 216.264 387.468 217.752C390.396 219.24 392.916 221.232 395.028 223.728C397.188 226.224 398.82 229.008 399.924 232.08C401.076 235.152 401.652 238.296 401.652 241.512C401.652 244.92 401.052 248.184 399.852 251.304C398.652 254.376 396.972 257.136 394.812 259.584C392.652 261.984 390.108 263.88 387.18 265.272C384.252 266.664 381.084 267.36 377.676 267.36ZM358.74 241.44C358.74 244.224 359.196 246.888 360.108 249.432C361.02 251.976 362.316 254.256 363.996 256.272C365.676 258.288 367.668 259.896 369.972 261.096C372.324 262.248 374.892 262.824 377.676 262.824C380.604 262.824 383.22 262.224 385.524 261.024C387.876 259.776 389.868 258.12 391.5 256.056C393.18 253.992 394.452 251.712 395.316 249.216C396.18 246.672 396.612 244.08 396.612 241.44C396.612 238.656 396.156 235.992 395.244 233.448C394.332 230.904 393.012 228.624 391.284 226.608C389.604 224.592 387.612 223.008 385.308 221.856C383.004 220.704 380.46 220.128 377.676 220.128C374.796 220.128 372.18 220.728 369.828 221.928C367.524 223.128 365.532 224.76 363.852 226.824C362.22 228.84 360.948 231.12 360.036 233.664C359.172 236.208 358.74 238.8 358.74 241.44ZM431.746 267.36C428.146 267.36 424.882 266.64 421.954 265.2C419.026 263.712 416.506 261.744 414.394 259.296C412.282 256.848 410.65 254.088 409.498 251.016C408.346 247.896 407.77 244.704 407.77 241.44C407.77 238.032 408.37 234.792 409.57 231.72C410.77 228.6 412.45 225.84 414.61 223.44C416.818 220.992 419.386 219.072 422.314 217.68C425.242 216.24 428.41 215.52 431.818 215.52C435.37 215.52 438.61 216.264 441.538 217.752C444.466 219.24 446.986 221.232 449.098 223.728C451.258 226.224 452.89 229.008 453.994 232.08C455.146 235.152 455.722 238.296 455.722 241.512C455.722 244.92 455.122 248.184 453.922 251.304C452.722 254.376 451.042 257.136 448.882 259.584C446.722 261.984 444.178 263.88 441.25 265.272C438.322 266.664 435.154 267.36 431.746 267.36ZM412.81 241.44C412.81 244.224 413.266 246.888 414.178 249.432C415.09 251.976 416.386 254.256 418.066 256.272C419.746 258.288 421.738 259.896 424.042 261.096C426.394 262.248 428.962 262.824 431.746 262.824C434.674 262.824 437.29 262.224 439.594 261.024C441.946 259.776 443.938 258.12 445.57 256.056C447.25 253.992 448.522 251.712 449.386 249.216C450.25 246.672 450.682 244.08 450.682 241.44C450.682 238.656 450.226 235.992 449.314 233.448C448.402 230.904 447.082 228.624 445.354 226.608C443.674 224.592 441.682 223.008 439.378 221.856C437.074 220.704 434.53 220.128 431.746 220.128C428.866 220.128 426.25 220.728 423.898 221.928C421.594 223.128 419.602 224.76 417.922 226.824C416.29 228.84 415.018 231.12 414.106 233.664C413.242 236.208 412.81 238.8 412.81 241.44ZM470.264 225.168V267H465.224V215.88H469.4L502.952 258.504V215.952H507.992V267H503.312L470.264 225.168Z" fill="white"/>
</svg>
